<mxfile host="app.diagrams.net" agent="Mozilla/5.0 (Windows NT 10.0; Win64; x64) AppleWebKit/537.36 (KHTML, like Gecko) Chrome/127.0.0.0 Safari/537.36" version="24.7.7">
  <diagram name="ページ1" id="QDPaL0DgUNPZWKfL8xGB">
    <mxGraphModel grid="1" page="1" gridSize="10" guides="1" tooltips="1" connect="1" arrows="1" fold="1" pageScale="1" pageWidth="827" pageHeight="1169" math="0" shadow="0">
      <root>
        <mxCell id="0" />
        <mxCell id="1" parent="0" />
        <mxCell id="8xHDok9zBG-l4hUBOV3J-1" value="お金を投入" style="rounded=0;whiteSpace=wrap;html=1;" vertex="1" parent="1">
          <mxGeometry x="40" y="80" width="120" height="60" as="geometry" />
        </mxCell>
        <mxCell id="8xHDok9zBG-l4hUBOV3J-2" value="" style="endArrow=classic;html=1;rounded=0;exitX=0.5;exitY=1;exitDx=0;exitDy=0;" edge="1" parent="1" source="8xHDok9zBG-l4hUBOV3J-1" target="8xHDok9zBG-l4hUBOV3J-3">
          <mxGeometry width="50" height="50" relative="1" as="geometry">
            <mxPoint x="390" y="190" as="sourcePoint" />
            <mxPoint x="440" y="140" as="targetPoint" />
          </mxGeometry>
        </mxCell>
        <mxCell id="8xHDok9zBG-l4hUBOV3J-3" value="購入する飲料&lt;div&gt;のボタンを押す&lt;/div&gt;" style="rounded=0;whiteSpace=wrap;html=1;" vertex="1" parent="1">
          <mxGeometry x="40" y="480" width="120" height="60" as="geometry" />
        </mxCell>
        <mxCell id="8xHDok9zBG-l4hUBOV3J-4" value="飲料とお釣りが排出" style="rounded=0;whiteSpace=wrap;html=1;" vertex="1" parent="1">
          <mxGeometry x="40" y="980" width="120" height="60" as="geometry" />
        </mxCell>
        <mxCell id="8xHDok9zBG-l4hUBOV3J-5" value="" style="endArrow=classic;html=1;rounded=0;entryX=0.5;entryY=0;entryDx=0;entryDy=0;exitX=0.5;exitY=1;exitDx=0;exitDy=0;" edge="1" parent="1" source="8xHDok9zBG-l4hUBOV3J-3" target="8xHDok9zBG-l4hUBOV3J-4">
          <mxGeometry width="50" height="50" relative="1" as="geometry">
            <mxPoint x="300" y="250" as="sourcePoint" />
            <mxPoint x="110" y="270" as="targetPoint" />
          </mxGeometry>
        </mxCell>
        <mxCell id="8xHDok9zBG-l4hUBOV3J-6" value="投入金額&lt;div&gt;オブジェクトを作成&lt;/div&gt;" style="rounded=0;whiteSpace=wrap;html=1;" vertex="1" parent="1">
          <mxGeometry x="240" y="40" width="120" height="60" as="geometry" />
        </mxCell>
        <mxCell id="8xHDok9zBG-l4hUBOV3J-7" value="投入金額&lt;span style=&quot;background-color: initial;&quot;&gt;を表示&lt;/span&gt;" style="rounded=0;whiteSpace=wrap;html=1;" vertex="1" parent="1">
          <mxGeometry x="240" y="140" width="120" height="60" as="geometry" />
        </mxCell>
        <mxCell id="8xHDok9zBG-l4hUBOV3J-8" value="自販機内の状態&lt;div&gt;を確認&lt;/div&gt;" style="rounded=0;whiteSpace=wrap;html=1;" vertex="1" parent="1">
          <mxGeometry x="240" y="280" width="120" height="60" as="geometry" />
        </mxCell>
        <mxCell id="8xHDok9zBG-l4hUBOV3J-9" value="自販機内の状態&lt;div&gt;を更新&lt;/div&gt;" style="rounded=0;whiteSpace=wrap;html=1;" vertex="1" parent="1">
          <mxGeometry x="240" y="480" width="120" height="60" as="geometry" />
        </mxCell>
        <mxCell id="8xHDok9zBG-l4hUBOV3J-10" value="ユーザから見える自販機システムに反映" style="rounded=0;whiteSpace=wrap;html=1;" vertex="1" parent="1">
          <mxGeometry x="240" y="660" width="120" height="60" as="geometry" />
        </mxCell>
        <mxCell id="8xHDok9zBG-l4hUBOV3J-11" value="投入金額&lt;div&gt;オブジェクトを取得&lt;/div&gt;" style="rounded=0;whiteSpace=wrap;html=1;" vertex="1" parent="1">
          <mxGeometry x="440" y="200" width="120" height="60" as="geometry" />
        </mxCell>
        <mxCell id="8xHDok9zBG-l4hUBOV3J-12" value="購入予定の飲料とその金額オブジェクトを取得" style="rounded=0;whiteSpace=wrap;html=1;" vertex="1" parent="1">
          <mxGeometry x="440" y="280" width="120" height="60" as="geometry" />
        </mxCell>
        <mxCell id="8xHDok9zBG-l4hUBOV3J-13" value="購入可能か判定" style="rounded=0;whiteSpace=wrap;html=1;" vertex="1" parent="1">
          <mxGeometry x="440" y="360" width="120" height="60" as="geometry" />
        </mxCell>
        <mxCell id="8xHDok9zBG-l4hUBOV3J-14" value="取得したデータを基に購入後の在庫数や自販機内の残金、お釣りを算出" style="rounded=0;whiteSpace=wrap;html=1;" vertex="1" parent="1">
          <mxGeometry x="440" y="440" width="120" height="60" as="geometry" />
        </mxCell>
        <mxCell id="8xHDok9zBG-l4hUBOV3J-15" value="各データを更新し&lt;div&gt;保存&lt;/div&gt;" style="rounded=0;whiteSpace=wrap;html=1;" vertex="1" parent="1">
          <mxGeometry x="440" y="520" width="120" height="60" as="geometry" />
        </mxCell>
        <mxCell id="8xHDok9zBG-l4hUBOV3J-16" value="在庫状況の表示" style="rounded=0;whiteSpace=wrap;html=1;" vertex="1" parent="1">
          <mxGeometry x="440" y="600" width="120" height="60" as="geometry" />
        </mxCell>
        <mxCell id="8xHDok9zBG-l4hUBOV3J-17" value="お釣りの表示と排出" style="rounded=0;whiteSpace=wrap;html=1;" vertex="1" parent="1">
          <mxGeometry x="440" y="700" width="120" height="60" as="geometry" />
        </mxCell>
        <mxCell id="8xHDok9zBG-l4hUBOV3J-18" value="飲料の排出" style="rounded=0;whiteSpace=wrap;html=1;" vertex="1" parent="1">
          <mxGeometry x="440" y="800" width="120" height="60" as="geometry" />
        </mxCell>
        <mxCell id="8xHDok9zBG-l4hUBOV3J-19" value="作成したオブジェクトから取得" style="rounded=0;whiteSpace=wrap;html=1;" vertex="1" parent="1">
          <mxGeometry x="640" y="200" width="120" height="60" as="geometry" />
        </mxCell>
        <mxCell id="8xHDok9zBG-l4hUBOV3J-20" value="在庫管理データベースから購入予定の飲料に関するデータのみを取得" style="rounded=0;whiteSpace=wrap;html=1;" vertex="1" parent="1">
          <mxGeometry x="640" y="280" width="120" height="60" as="geometry" />
        </mxCell>
        <mxCell id="8xHDok9zBG-l4hUBOV3J-21" value="購入可能ならTrue, 購入不可ならFalseを返す" style="rounded=0;whiteSpace=wrap;html=1;" vertex="1" parent="1">
          <mxGeometry x="640" y="360" width="120" height="60" as="geometry" />
        </mxCell>
        <mxCell id="8xHDok9zBG-l4hUBOV3J-22" value="自販機内の残金については、自販機内の残金オブジェクトから取得する" style="rounded=0;whiteSpace=wrap;html=1;" vertex="1" parent="1">
          <mxGeometry x="640" y="440" width="120" height="60" as="geometry" />
        </mxCell>
        <mxCell id="8xHDok9zBG-l4hUBOV3J-23" value="それぞれ算出結果に基づいてオブジェクトやデータベースを更新" style="rounded=0;whiteSpace=wrap;html=1;" vertex="1" parent="1">
          <mxGeometry x="640" y="520" width="120" height="60" as="geometry" />
        </mxCell>
        <mxCell id="8xHDok9zBG-l4hUBOV3J-24" value="在庫管理データベースから取得" style="rounded=0;whiteSpace=wrap;html=1;" vertex="1" parent="1">
          <mxGeometry x="640" y="600" width="120" height="60" as="geometry" />
        </mxCell>
        <mxCell id="8xHDok9zBG-l4hUBOV3J-33" value="" style="edgeStyle=orthogonalEdgeStyle;rounded=0;orthogonalLoop=1;jettySize=auto;html=1;exitX=0.5;exitY=1;exitDx=0;exitDy=0;" edge="1" parent="1" source="8xHDok9zBG-l4hUBOV3J-6">
          <mxGeometry relative="1" as="geometry">
            <mxPoint x="310" y="210" as="sourcePoint" />
            <mxPoint x="300" y="140" as="targetPoint" />
          </mxGeometry>
        </mxCell>
        <mxCell id="8xHDok9zBG-l4hUBOV3J-35" value="" style="edgeStyle=orthogonalEdgeStyle;rounded=0;orthogonalLoop=1;jettySize=auto;html=1;exitX=0.5;exitY=1;exitDx=0;exitDy=0;entryX=0.5;entryY=0;entryDx=0;entryDy=0;" edge="1" parent="1" source="8xHDok9zBG-l4hUBOV3J-8" target="8xHDok9zBG-l4hUBOV3J-9">
          <mxGeometry relative="1" as="geometry">
            <mxPoint x="260" y="340" as="sourcePoint" />
            <mxPoint x="260" y="420" as="targetPoint" />
          </mxGeometry>
        </mxCell>
        <mxCell id="8xHDok9zBG-l4hUBOV3J-36" value="" style="endArrow=classic;html=1;rounded=0;exitX=1;exitY=0.25;exitDx=0;exitDy=0;entryX=0.5;entryY=0;entryDx=0;entryDy=0;" edge="1" parent="1" source="8xHDok9zBG-l4hUBOV3J-1" target="8xHDok9zBG-l4hUBOV3J-6">
          <mxGeometry width="50" height="50" relative="1" as="geometry">
            <mxPoint x="110" y="150" as="sourcePoint" />
            <mxPoint x="110" y="490" as="targetPoint" />
            <Array as="points">
              <mxPoint x="200" y="95" />
              <mxPoint x="200" y="20" />
              <mxPoint x="300" y="20" />
            </Array>
          </mxGeometry>
        </mxCell>
        <mxCell id="8xHDok9zBG-l4hUBOV3J-37" value="" style="endArrow=classic;html=1;rounded=0;exitX=0;exitY=0.5;exitDx=0;exitDy=0;entryX=1;entryY=0.667;entryDx=0;entryDy=0;entryPerimeter=0;" edge="1" parent="1" source="8xHDok9zBG-l4hUBOV3J-7" target="8xHDok9zBG-l4hUBOV3J-1">
          <mxGeometry width="50" height="50" relative="1" as="geometry">
            <mxPoint x="170" y="105" as="sourcePoint" />
            <mxPoint x="310" y="50" as="targetPoint" />
            <Array as="points">
              <mxPoint x="200" y="170" />
              <mxPoint x="200" y="120" />
            </Array>
          </mxGeometry>
        </mxCell>
        <mxCell id="8xHDok9zBG-l4hUBOV3J-38" value="" style="edgeStyle=orthogonalEdgeStyle;rounded=0;orthogonalLoop=1;jettySize=auto;html=1;exitX=0.5;exitY=1;exitDx=0;exitDy=0;entryX=0.5;entryY=0;entryDx=0;entryDy=0;" edge="1" parent="1" source="8xHDok9zBG-l4hUBOV3J-9" target="8xHDok9zBG-l4hUBOV3J-10">
          <mxGeometry relative="1" as="geometry">
            <mxPoint x="260" y="550" as="sourcePoint" />
            <mxPoint x="260" y="690" as="targetPoint" />
          </mxGeometry>
        </mxCell>
        <mxCell id="8xHDok9zBG-l4hUBOV3J-39" value="" style="edgeStyle=orthogonalEdgeStyle;rounded=0;orthogonalLoop=1;jettySize=auto;html=1;exitX=0;exitY=0.5;exitDx=0;exitDy=0;entryX=1;entryY=0.75;entryDx=0;entryDy=0;" edge="1" parent="1" source="8xHDok9zBG-l4hUBOV3J-10" target="8xHDok9zBG-l4hUBOV3J-3">
          <mxGeometry relative="1" as="geometry">
            <mxPoint x="320" y="360" as="sourcePoint" />
            <mxPoint x="320" y="500" as="targetPoint" />
          </mxGeometry>
        </mxCell>
        <mxCell id="8xHDok9zBG-l4hUBOV3J-40" value="" style="endArrow=classic;html=1;rounded=0;exitX=1;exitY=0.25;exitDx=0;exitDy=0;" edge="1" parent="1" source="8xHDok9zBG-l4hUBOV3J-3">
          <mxGeometry width="50" height="50" relative="1" as="geometry">
            <mxPoint x="160" y="500" as="sourcePoint" />
            <mxPoint x="300" y="280" as="targetPoint" />
            <Array as="points">
              <mxPoint x="200" y="495" />
              <mxPoint x="200" y="260" />
              <mxPoint x="300" y="260" />
            </Array>
          </mxGeometry>
        </mxCell>
        <mxCell id="8xHDok9zBG-l4hUBOV3J-41" value="" style="edgeStyle=orthogonalEdgeStyle;rounded=0;orthogonalLoop=1;jettySize=auto;html=1;exitX=0.5;exitY=1;exitDx=0;exitDy=0;entryX=0.5;entryY=0;entryDx=0;entryDy=0;" edge="1" parent="1" source="8xHDok9zBG-l4hUBOV3J-11" target="8xHDok9zBG-l4hUBOV3J-12">
          <mxGeometry relative="1" as="geometry">
            <mxPoint x="310" y="350" as="sourcePoint" />
            <mxPoint x="310" y="490" as="targetPoint" />
          </mxGeometry>
        </mxCell>
        <mxCell id="8xHDok9zBG-l4hUBOV3J-42" value="" style="edgeStyle=orthogonalEdgeStyle;rounded=0;orthogonalLoop=1;jettySize=auto;html=1;exitX=0.5;exitY=1;exitDx=0;exitDy=0;" edge="1" parent="1" source="8xHDok9zBG-l4hUBOV3J-12">
          <mxGeometry relative="1" as="geometry">
            <mxPoint x="320" y="360" as="sourcePoint" />
            <mxPoint x="500" y="360" as="targetPoint" />
          </mxGeometry>
        </mxCell>
        <mxCell id="8xHDok9zBG-l4hUBOV3J-43" value="" style="edgeStyle=orthogonalEdgeStyle;rounded=0;orthogonalLoop=1;jettySize=auto;html=1;exitX=0.5;exitY=1;exitDx=0;exitDy=0;entryX=0.5;entryY=0;entryDx=0;entryDy=0;" edge="1" parent="1" source="8xHDok9zBG-l4hUBOV3J-14" target="8xHDok9zBG-l4hUBOV3J-15">
          <mxGeometry relative="1" as="geometry">
            <mxPoint x="330" y="370" as="sourcePoint" />
            <mxPoint x="330" y="510" as="targetPoint" />
          </mxGeometry>
        </mxCell>
        <mxCell id="8xHDok9zBG-l4hUBOV3J-44" value="" style="edgeStyle=orthogonalEdgeStyle;rounded=0;orthogonalLoop=1;jettySize=auto;html=1;exitX=0.5;exitY=1;exitDx=0;exitDy=0;entryX=0.5;entryY=0;entryDx=0;entryDy=0;" edge="1" parent="1" source="8xHDok9zBG-l4hUBOV3J-17" target="8xHDok9zBG-l4hUBOV3J-18">
          <mxGeometry relative="1" as="geometry">
            <mxPoint x="340" y="380" as="sourcePoint" />
            <mxPoint x="340" y="520" as="targetPoint" />
          </mxGeometry>
        </mxCell>
        <mxCell id="8xHDok9zBG-l4hUBOV3J-45" value="" style="edgeStyle=orthogonalEdgeStyle;rounded=0;orthogonalLoop=1;jettySize=auto;html=1;exitX=0.5;exitY=1;exitDx=0;exitDy=0;entryX=0.5;entryY=0;entryDx=0;entryDy=0;" edge="1" parent="1" source="8xHDok9zBG-l4hUBOV3J-16" target="8xHDok9zBG-l4hUBOV3J-17">
          <mxGeometry relative="1" as="geometry">
            <mxPoint x="350" y="390" as="sourcePoint" />
            <mxPoint x="350" y="530" as="targetPoint" />
          </mxGeometry>
        </mxCell>
        <mxCell id="8xHDok9zBG-l4hUBOV3J-49" value="" style="endArrow=classic;html=1;rounded=0;exitX=1;exitY=0.25;exitDx=0;exitDy=0;" edge="1" parent="1" source="8xHDok9zBG-l4hUBOV3J-8" target="8xHDok9zBG-l4hUBOV3J-11">
          <mxGeometry width="50" height="50" relative="1" as="geometry">
            <mxPoint x="360" y="295" as="sourcePoint" />
            <mxPoint x="500" y="80" as="targetPoint" />
            <Array as="points">
              <mxPoint x="400" y="295" />
              <mxPoint x="400" y="160" />
              <mxPoint x="500" y="160" />
            </Array>
          </mxGeometry>
        </mxCell>
        <mxCell id="8xHDok9zBG-l4hUBOV3J-51" value="" style="edgeStyle=orthogonalEdgeStyle;rounded=0;orthogonalLoop=1;jettySize=auto;html=1;exitX=0;exitY=0.5;exitDx=0;exitDy=0;entryX=1;entryY=0.5;entryDx=0;entryDy=0;" edge="1" parent="1" source="8xHDok9zBG-l4hUBOV3J-13" target="8xHDok9zBG-l4hUBOV3J-8">
          <mxGeometry relative="1" as="geometry">
            <mxPoint x="494" y="495" as="sourcePoint" />
            <mxPoint x="414" y="330" as="targetPoint" />
            <Array as="points">
              <mxPoint x="400" y="390" />
              <mxPoint x="400" y="310" />
            </Array>
          </mxGeometry>
        </mxCell>
        <mxCell id="8xHDok9zBG-l4hUBOV3J-53" value="" style="endArrow=classic;html=1;rounded=0;exitX=1;exitY=0.25;exitDx=0;exitDy=0;entryX=0;entryY=0.25;entryDx=0;entryDy=0;" edge="1" parent="1" source="8xHDok9zBG-l4hUBOV3J-9" target="8xHDok9zBG-l4hUBOV3J-14">
          <mxGeometry width="50" height="50" relative="1" as="geometry">
            <mxPoint x="370" y="305" as="sourcePoint" />
            <mxPoint x="510" y="210" as="targetPoint" />
            <Array as="points">
              <mxPoint x="400" y="495" />
              <mxPoint x="400" y="455" />
            </Array>
          </mxGeometry>
        </mxCell>
        <mxCell id="8xHDok9zBG-l4hUBOV3J-54" value="" style="edgeStyle=orthogonalEdgeStyle;rounded=0;orthogonalLoop=1;jettySize=auto;html=1;exitX=0;exitY=0.5;exitDx=0;exitDy=0;entryX=1;entryY=0.5;entryDx=0;entryDy=0;" edge="1" parent="1" source="8xHDok9zBG-l4hUBOV3J-15" target="8xHDok9zBG-l4hUBOV3J-9">
          <mxGeometry relative="1" as="geometry">
            <mxPoint x="430" y="632.25" as="sourcePoint" />
            <mxPoint x="350" y="467.25" as="targetPoint" />
          </mxGeometry>
        </mxCell>
        <mxCell id="8xHDok9zBG-l4hUBOV3J-55" value="" style="endArrow=classic;html=1;rounded=0;exitX=1;exitY=0.25;exitDx=0;exitDy=0;entryX=0;entryY=0.5;entryDx=0;entryDy=0;" edge="1" parent="1" source="8xHDok9zBG-l4hUBOV3J-10" target="8xHDok9zBG-l4hUBOV3J-16">
          <mxGeometry width="50" height="50" relative="1" as="geometry">
            <mxPoint x="360" y="670" as="sourcePoint" />
            <mxPoint x="440" y="630" as="targetPoint" />
            <Array as="points">
              <mxPoint x="400" y="675" />
              <mxPoint x="400" y="630" />
            </Array>
          </mxGeometry>
        </mxCell>
        <mxCell id="8xHDok9zBG-l4hUBOV3J-56" value="" style="edgeStyle=orthogonalEdgeStyle;rounded=0;orthogonalLoop=1;jettySize=auto;html=1;exitX=0;exitY=0.5;exitDx=0;exitDy=0;entryX=1;entryY=0.5;entryDx=0;entryDy=0;" edge="1" parent="1" target="8xHDok9zBG-l4hUBOV3J-10">
          <mxGeometry relative="1" as="geometry">
            <mxPoint x="440" y="830" as="sourcePoint" />
            <mxPoint x="360" y="790" as="targetPoint" />
          </mxGeometry>
        </mxCell>
        <mxCell id="8xHDok9zBG-l4hUBOV3J-57" value="" style="endArrow=classic;html=1;rounded=0;exitX=1;exitY=0.25;exitDx=0;exitDy=0;entryX=0;entryY=0.25;entryDx=0;entryDy=0;" edge="1" parent="1" source="8xHDok9zBG-l4hUBOV3J-11" target="8xHDok9zBG-l4hUBOV3J-19">
          <mxGeometry width="50" height="50" relative="1" as="geometry">
            <mxPoint x="110" y="150" as="sourcePoint" />
            <mxPoint x="110" y="490" as="targetPoint" />
          </mxGeometry>
        </mxCell>
        <mxCell id="8xHDok9zBG-l4hUBOV3J-58" value="" style="endArrow=classic;html=1;rounded=0;entryX=0;entryY=0.25;entryDx=0;entryDy=0;exitX=1;exitY=0.25;exitDx=0;exitDy=0;" edge="1" parent="1" source="8xHDok9zBG-l4hUBOV3J-12" target="8xHDok9zBG-l4hUBOV3J-20">
          <mxGeometry width="50" height="50" relative="1" as="geometry">
            <mxPoint x="563" y="300" as="sourcePoint" />
            <mxPoint x="650" y="225" as="targetPoint" />
          </mxGeometry>
        </mxCell>
        <mxCell id="8xHDok9zBG-l4hUBOV3J-59" value="" style="endArrow=classic;html=1;rounded=0;entryX=0;entryY=0.25;entryDx=0;entryDy=0;exitX=1;exitY=0.25;exitDx=0;exitDy=0;" edge="1" parent="1" source="8xHDok9zBG-l4hUBOV3J-13" target="8xHDok9zBG-l4hUBOV3J-21">
          <mxGeometry width="50" height="50" relative="1" as="geometry">
            <mxPoint x="570" y="305" as="sourcePoint" />
            <mxPoint x="650" y="305" as="targetPoint" />
          </mxGeometry>
        </mxCell>
        <mxCell id="8xHDok9zBG-l4hUBOV3J-60" value="" style="endArrow=classic;html=1;rounded=0;entryX=0;entryY=0.25;entryDx=0;entryDy=0;exitX=1;exitY=0.25;exitDx=0;exitDy=0;" edge="1" parent="1" source="8xHDok9zBG-l4hUBOV3J-14" target="8xHDok9zBG-l4hUBOV3J-22">
          <mxGeometry width="50" height="50" relative="1" as="geometry">
            <mxPoint x="580" y="315" as="sourcePoint" />
            <mxPoint x="660" y="315" as="targetPoint" />
          </mxGeometry>
        </mxCell>
        <mxCell id="8xHDok9zBG-l4hUBOV3J-61" value="" style="endArrow=classic;html=1;rounded=0;entryX=0;entryY=0.25;entryDx=0;entryDy=0;exitX=1;exitY=0.25;exitDx=0;exitDy=0;" edge="1" parent="1" source="8xHDok9zBG-l4hUBOV3J-15" target="8xHDok9zBG-l4hUBOV3J-23">
          <mxGeometry width="50" height="50" relative="1" as="geometry">
            <mxPoint x="590" y="325" as="sourcePoint" />
            <mxPoint x="670" y="325" as="targetPoint" />
          </mxGeometry>
        </mxCell>
        <mxCell id="8xHDok9zBG-l4hUBOV3J-62" value="" style="endArrow=classic;html=1;rounded=0;entryX=0;entryY=0.25;entryDx=0;entryDy=0;exitX=1;exitY=0.25;exitDx=0;exitDy=0;" edge="1" parent="1" source="8xHDok9zBG-l4hUBOV3J-16" target="8xHDok9zBG-l4hUBOV3J-24">
          <mxGeometry width="50" height="50" relative="1" as="geometry">
            <mxPoint x="600" y="335" as="sourcePoint" />
            <mxPoint x="680" y="335" as="targetPoint" />
          </mxGeometry>
        </mxCell>
        <mxCell id="8xHDok9zBG-l4hUBOV3J-63" value="" style="endArrow=classic;html=1;rounded=0;exitX=0;exitY=0.633;exitDx=0;exitDy=0;entryX=1.008;entryY=0.633;entryDx=0;entryDy=0;entryPerimeter=0;exitPerimeter=0;" edge="1" parent="1" source="8xHDok9zBG-l4hUBOV3J-19" target="8xHDok9zBG-l4hUBOV3J-11">
          <mxGeometry width="50" height="50" relative="1" as="geometry">
            <mxPoint x="570" y="225" as="sourcePoint" />
            <mxPoint x="650" y="225" as="targetPoint" />
          </mxGeometry>
        </mxCell>
        <mxCell id="8xHDok9zBG-l4hUBOV3J-64" value="" style="endArrow=classic;html=1;rounded=0;exitX=0;exitY=0.75;exitDx=0;exitDy=0;entryX=1;entryY=0.75;entryDx=0;entryDy=0;" edge="1" parent="1" source="8xHDok9zBG-l4hUBOV3J-20" target="8xHDok9zBG-l4hUBOV3J-12">
          <mxGeometry width="50" height="50" relative="1" as="geometry">
            <mxPoint x="650" y="248" as="sourcePoint" />
            <mxPoint x="571" y="248" as="targetPoint" />
          </mxGeometry>
        </mxCell>
        <mxCell id="8xHDok9zBG-l4hUBOV3J-65" value="" style="endArrow=classic;html=1;rounded=0;exitX=0;exitY=0.75;exitDx=0;exitDy=0;entryX=1;entryY=0.75;entryDx=0;entryDy=0;" edge="1" parent="1" source="8xHDok9zBG-l4hUBOV3J-21" target="8xHDok9zBG-l4hUBOV3J-13">
          <mxGeometry width="50" height="50" relative="1" as="geometry">
            <mxPoint x="660" y="258" as="sourcePoint" />
            <mxPoint x="581" y="258" as="targetPoint" />
          </mxGeometry>
        </mxCell>
        <mxCell id="8xHDok9zBG-l4hUBOV3J-66" value="" style="endArrow=classic;html=1;rounded=0;exitX=0;exitY=0.75;exitDx=0;exitDy=0;entryX=1;entryY=0.75;entryDx=0;entryDy=0;" edge="1" parent="1" source="8xHDok9zBG-l4hUBOV3J-22" target="8xHDok9zBG-l4hUBOV3J-14">
          <mxGeometry width="50" height="50" relative="1" as="geometry">
            <mxPoint x="670" y="268" as="sourcePoint" />
            <mxPoint x="591" y="268" as="targetPoint" />
          </mxGeometry>
        </mxCell>
        <mxCell id="8xHDok9zBG-l4hUBOV3J-67" value="" style="endArrow=classic;html=1;rounded=0;exitX=0;exitY=0.75;exitDx=0;exitDy=0;entryX=1;entryY=0.75;entryDx=0;entryDy=0;" edge="1" parent="1" source="8xHDok9zBG-l4hUBOV3J-23" target="8xHDok9zBG-l4hUBOV3J-15">
          <mxGeometry width="50" height="50" relative="1" as="geometry">
            <mxPoint x="680" y="278" as="sourcePoint" />
            <mxPoint x="601" y="278" as="targetPoint" />
          </mxGeometry>
        </mxCell>
        <mxCell id="8xHDok9zBG-l4hUBOV3J-68" value="" style="endArrow=classic;html=1;rounded=0;exitX=0;exitY=0.75;exitDx=0;exitDy=0;entryX=1;entryY=0.75;entryDx=0;entryDy=0;" edge="1" parent="1" source="8xHDok9zBG-l4hUBOV3J-24" target="8xHDok9zBG-l4hUBOV3J-16">
          <mxGeometry width="50" height="50" relative="1" as="geometry">
            <mxPoint x="690" y="288" as="sourcePoint" />
            <mxPoint x="611" y="288" as="targetPoint" />
          </mxGeometry>
        </mxCell>
        <mxCell id="8xHDok9zBG-l4hUBOV3J-69" value="算出結果を代入した変数から取得" style="rounded=0;whiteSpace=wrap;html=1;" vertex="1" parent="1">
          <mxGeometry x="640" y="700" width="120" height="60" as="geometry" />
        </mxCell>
        <mxCell id="8xHDok9zBG-l4hUBOV3J-70" value="購入予定の飲料を代入した変数から取得" style="rounded=0;whiteSpace=wrap;html=1;" vertex="1" parent="1">
          <mxGeometry x="640" y="800" width="120" height="60" as="geometry" />
        </mxCell>
        <mxCell id="8xHDok9zBG-l4hUBOV3J-71" value="" style="endArrow=classic;html=1;rounded=0;entryX=0;entryY=0.25;entryDx=0;entryDy=0;exitX=1;exitY=0.25;exitDx=0;exitDy=0;" edge="1" parent="1" source="8xHDok9zBG-l4hUBOV3J-17" target="8xHDok9zBG-l4hUBOV3J-69">
          <mxGeometry width="50" height="50" relative="1" as="geometry">
            <mxPoint x="570" y="625" as="sourcePoint" />
            <mxPoint x="650" y="625" as="targetPoint" />
          </mxGeometry>
        </mxCell>
        <mxCell id="8xHDok9zBG-l4hUBOV3J-72" value="" style="endArrow=classic;html=1;rounded=0;exitX=0;exitY=0.75;exitDx=0;exitDy=0;entryX=1;entryY=0.75;entryDx=0;entryDy=0;" edge="1" parent="1" source="8xHDok9zBG-l4hUBOV3J-69" target="8xHDok9zBG-l4hUBOV3J-17">
          <mxGeometry width="50" height="50" relative="1" as="geometry">
            <mxPoint x="650" y="655" as="sourcePoint" />
            <mxPoint x="570" y="655" as="targetPoint" />
          </mxGeometry>
        </mxCell>
        <mxCell id="8xHDok9zBG-l4hUBOV3J-73" value="" style="endArrow=classic;html=1;rounded=0;entryX=0;entryY=0.25;entryDx=0;entryDy=0;exitX=1;exitY=0.25;exitDx=0;exitDy=0;" edge="1" parent="1" source="8xHDok9zBG-l4hUBOV3J-18" target="8xHDok9zBG-l4hUBOV3J-70">
          <mxGeometry width="50" height="50" relative="1" as="geometry">
            <mxPoint x="570" y="725" as="sourcePoint" />
            <mxPoint x="650" y="725" as="targetPoint" />
          </mxGeometry>
        </mxCell>
        <mxCell id="8xHDok9zBG-l4hUBOV3J-74" value="" style="endArrow=classic;html=1;rounded=0;exitX=0;exitY=0.617;exitDx=0;exitDy=0;entryX=1.025;entryY=0.617;entryDx=0;entryDy=0;exitPerimeter=0;entryPerimeter=0;" edge="1" parent="1" source="8xHDok9zBG-l4hUBOV3J-70" target="8xHDok9zBG-l4hUBOV3J-18">
          <mxGeometry width="50" height="50" relative="1" as="geometry">
            <mxPoint x="650" y="755" as="sourcePoint" />
            <mxPoint x="570" y="755" as="targetPoint" />
          </mxGeometry>
        </mxCell>
      </root>
    </mxGraphModel>
  </diagram>
</mxfile>
